<svg xmlns="http://www.w3.org/2000/svg" viewBox="0 0 1024 1024" width="1024" height="1024">
  <defs>
    <linearGradient id="tile" x1="0.1" y1="0" x2="0.9" y2="1">
      <stop offset="0" stop-color="#8b94ff"/>
      <stop offset="0.5" stop-color="#5e6ad2"/>
      <stop offset="1" stop-color="#2f2f8f"/>
    </linearGradient>
    <radialGradient id="sheen" cx="0.22" cy="0.12" r="0.75">
      <stop offset="0" stop-color="#ffffff" stop-opacity="0.34"/>
      <stop offset="0.55" stop-color="#ffffff" stop-opacity="0.04"/>
      <stop offset="1" stop-color="#ffffff" stop-opacity="0"/>
    </radialGradient>
    <linearGradient id="mark" gradientUnits="userSpaceOnUse" x1="0" y1="240" x2="0" y2="784">
      <stop offset="0" stop-color="#ffffff"/>
      <stop offset="1" stop-color="#dfe2ff"/>
    </linearGradient>
    <linearGradient id="block" x1="0" y1="0" x2="1" y2="1">
      <stop offset="0" stop-color="#7ef5e0"/>
      <stop offset="1" stop-color="#19b8a6"/>
    </linearGradient>
    <clipPath id="flat"><rect x="0" y="0" width="1024" height="784"/></clipPath>
    <filter id="drop" x="-20%" y="-20%" width="140%" height="150%">
      <feDropShadow dx="0" dy="22" stdDeviation="24" flood-color="#10104a" flood-opacity="0.55"/>
    </filter>
  </defs>
  <rect x="32" y="32" width="960" height="960" rx="232" fill="url(#tile)"/>
  <rect x="32" y="32" width="960" height="960" rx="232" fill="url(#sheen)"/>
  <rect x="44" y="44" width="936" height="936" rx="220" fill="none" stroke="#ffffff" stroke-opacity="0.18" stroke-width="6"/>
  <g transform="translate(-27 0)" filter="url(#drop)">
    <g clip-path="url(#flat)" fill="none" stroke="url(#mark)" stroke-width="128" stroke-linejoin="miter" stroke-linecap="butt">
      <path d="M352 840 V240"/>
      <path d="M352 304 H586 A136 136 0 0 1 586 576 H352"/>
      <path d="M548 576 L716 840"/>
    </g>
    <g transform="translate(493 396)">
      <rect width="88" height="88" rx="16" fill="url(#block)"/>
      <rect x="3" y="3" width="82" height="82" rx="13" fill="none" stroke="#ffffff" stroke-opacity="0.5" stroke-width="3"/>
    </g>
  </g>
</svg>
